<mxfile host="app.diagrams.net" modified="2022-07-11T06:51:02.117Z" agent="5.0 (Windows NT 10.0; Win64; x64) AppleWebKit/537.36 (KHTML, like Gecko) Chrome/103.0.5060.114 Safari/537.36 Edg/103.0.1264.49" etag="KbhG2sIRi9dQ6eVTSLAu" version="20.0.4" type="github">
  <diagram id="R2lEEEUBdFMjLlhIrx00" name="Page-1">
    <mxGraphModel dx="2206" dy="801" grid="1" gridSize="10" guides="1" tooltips="1" connect="1" arrows="1" fold="1" page="1" pageScale="1" pageWidth="850" pageHeight="1100" math="0" shadow="0" extFonts="Permanent Marker^https://fonts.googleapis.com/css?family=Permanent+Marker">
      <root>
        <mxCell id="0" />
        <mxCell id="1" parent="0" />
        <mxCell id="C-vyLk0tnHw3VtMMgP7b-1" value="" style="edgeStyle=entityRelationEdgeStyle;endArrow=ERzeroToMany;startArrow=ERone;endFill=1;startFill=0;" parent="1" source="C-vyLk0tnHw3VtMMgP7b-24" target="C-vyLk0tnHw3VtMMgP7b-6" edge="1">
          <mxGeometry width="100" height="100" relative="1" as="geometry">
            <mxPoint x="460" y="610" as="sourcePoint" />
            <mxPoint x="560" y="510" as="targetPoint" />
          </mxGeometry>
        </mxCell>
        <mxCell id="C-vyLk0tnHw3VtMMgP7b-12" value="" style="edgeStyle=entityRelationEdgeStyle;endArrow=ERzeroToMany;startArrow=ERone;endFill=1;startFill=0;" parent="1" source="C-vyLk0tnHw3VtMMgP7b-3" target="C-vyLk0tnHw3VtMMgP7b-17" edge="1">
          <mxGeometry width="100" height="100" relative="1" as="geometry">
            <mxPoint x="520" y="70" as="sourcePoint" />
            <mxPoint x="580" y="95" as="targetPoint" />
          </mxGeometry>
        </mxCell>
        <mxCell id="C-vyLk0tnHw3VtMMgP7b-2" value="Orders" style="shape=table;startSize=30;container=1;collapsible=1;childLayout=tableLayout;fixedRows=1;rowLines=0;fontStyle=1;align=center;resizeLast=1;" parent="1" vertex="1">
          <mxGeometry x="490" y="10" width="250" height="130" as="geometry" />
        </mxCell>
        <mxCell id="C-vyLk0tnHw3VtMMgP7b-3" value="" style="shape=partialRectangle;collapsible=0;dropTarget=0;pointerEvents=0;fillColor=none;points=[[0,0.5],[1,0.5]];portConstraint=eastwest;top=0;left=0;right=0;bottom=1;" parent="C-vyLk0tnHw3VtMMgP7b-2" vertex="1">
          <mxGeometry y="30" width="250" height="30" as="geometry" />
        </mxCell>
        <mxCell id="C-vyLk0tnHw3VtMMgP7b-4" value="PK" style="shape=partialRectangle;overflow=hidden;connectable=0;fillColor=none;top=0;left=0;bottom=0;right=0;fontStyle=1;" parent="C-vyLk0tnHw3VtMMgP7b-3" vertex="1">
          <mxGeometry width="30" height="30" as="geometry">
            <mxRectangle width="30" height="30" as="alternateBounds" />
          </mxGeometry>
        </mxCell>
        <mxCell id="C-vyLk0tnHw3VtMMgP7b-5" value="order_idÂ int NOT NULL " style="shape=partialRectangle;overflow=hidden;connectable=0;fillColor=none;top=0;left=0;bottom=0;right=0;align=left;spacingLeft=6;fontStyle=5;" parent="C-vyLk0tnHw3VtMMgP7b-3" vertex="1">
          <mxGeometry x="30" width="220" height="30" as="geometry">
            <mxRectangle width="220" height="30" as="alternateBounds" />
          </mxGeometry>
        </mxCell>
        <mxCell id="C-vyLk0tnHw3VtMMgP7b-6" value="" style="shape=partialRectangle;collapsible=0;dropTarget=0;pointerEvents=0;fillColor=none;points=[[0,0.5],[1,0.5]];portConstraint=eastwest;top=0;left=0;right=0;bottom=0;" parent="C-vyLk0tnHw3VtMMgP7b-2" vertex="1">
          <mxGeometry y="60" width="250" height="30" as="geometry" />
        </mxCell>
        <mxCell id="C-vyLk0tnHw3VtMMgP7b-7" value="FK1" style="shape=partialRectangle;overflow=hidden;connectable=0;fillColor=none;top=0;left=0;bottom=0;right=0;" parent="C-vyLk0tnHw3VtMMgP7b-6" vertex="1">
          <mxGeometry width="30" height="30" as="geometry">
            <mxRectangle width="30" height="30" as="alternateBounds" />
          </mxGeometry>
        </mxCell>
        <mxCell id="C-vyLk0tnHw3VtMMgP7b-8" value="customer_id int NOT NULL" style="shape=partialRectangle;overflow=hidden;connectable=0;fillColor=none;top=0;left=0;bottom=0;right=0;align=left;spacingLeft=6;" parent="C-vyLk0tnHw3VtMMgP7b-6" vertex="1">
          <mxGeometry x="30" width="220" height="30" as="geometry">
            <mxRectangle width="220" height="30" as="alternateBounds" />
          </mxGeometry>
        </mxCell>
        <mxCell id="C-vyLk0tnHw3VtMMgP7b-9" value="" style="shape=partialRectangle;collapsible=0;dropTarget=0;pointerEvents=0;fillColor=none;points=[[0,0.5],[1,0.5]];portConstraint=eastwest;top=0;left=0;right=0;bottom=0;" parent="C-vyLk0tnHw3VtMMgP7b-2" vertex="1">
          <mxGeometry y="90" width="250" height="30" as="geometry" />
        </mxCell>
        <mxCell id="C-vyLk0tnHw3VtMMgP7b-10" value="" style="shape=partialRectangle;overflow=hidden;connectable=0;fillColor=none;top=0;left=0;bottom=0;right=0;" parent="C-vyLk0tnHw3VtMMgP7b-9" vertex="1">
          <mxGeometry width="30" height="30" as="geometry">
            <mxRectangle width="30" height="30" as="alternateBounds" />
          </mxGeometry>
        </mxCell>
        <mxCell id="C-vyLk0tnHw3VtMMgP7b-11" value="order_id varchar NOT NULL&#xa;order_name char (15) NOT NULL" style="shape=partialRectangle;overflow=hidden;connectable=0;fillColor=none;top=0;left=0;bottom=0;right=0;align=left;spacingLeft=6;" parent="C-vyLk0tnHw3VtMMgP7b-9" vertex="1">
          <mxGeometry x="30" width="220" height="30" as="geometry">
            <mxRectangle width="220" height="30" as="alternateBounds" />
          </mxGeometry>
        </mxCell>
        <mxCell id="C-vyLk0tnHw3VtMMgP7b-13" value="HM_laptop" style="shape=table;startSize=30;container=1;collapsible=1;childLayout=tableLayout;fixedRows=1;rowLines=0;fontStyle=1;align=center;resizeLast=1;" parent="1" vertex="1">
          <mxGeometry x="670" y="160" width="250" height="130" as="geometry" />
        </mxCell>
        <mxCell id="C-vyLk0tnHw3VtMMgP7b-14" value="" style="shape=partialRectangle;collapsible=0;dropTarget=0;pointerEvents=0;fillColor=none;points=[[0,0.5],[1,0.5]];portConstraint=eastwest;top=0;left=0;right=0;bottom=1;" parent="C-vyLk0tnHw3VtMMgP7b-13" vertex="1">
          <mxGeometry y="30" width="250" height="30" as="geometry" />
        </mxCell>
        <mxCell id="C-vyLk0tnHw3VtMMgP7b-15" value="PK" style="shape=partialRectangle;overflow=hidden;connectable=0;fillColor=none;top=0;left=0;bottom=0;right=0;fontStyle=1;" parent="C-vyLk0tnHw3VtMMgP7b-14" vertex="1">
          <mxGeometry width="30" height="30" as="geometry">
            <mxRectangle width="30" height="30" as="alternateBounds" />
          </mxGeometry>
        </mxCell>
        <mxCell id="C-vyLk0tnHw3VtMMgP7b-16" value="laptop_id int NOT NULL " style="shape=partialRectangle;overflow=hidden;connectable=0;fillColor=none;top=0;left=0;bottom=0;right=0;align=left;spacingLeft=6;fontStyle=5;" parent="C-vyLk0tnHw3VtMMgP7b-14" vertex="1">
          <mxGeometry x="30" width="220" height="30" as="geometry">
            <mxRectangle width="220" height="30" as="alternateBounds" />
          </mxGeometry>
        </mxCell>
        <mxCell id="C-vyLk0tnHw3VtMMgP7b-17" value="" style="shape=partialRectangle;collapsible=0;dropTarget=0;pointerEvents=0;fillColor=none;points=[[0,0.5],[1,0.5]];portConstraint=eastwest;top=0;left=0;right=0;bottom=0;" parent="C-vyLk0tnHw3VtMMgP7b-13" vertex="1">
          <mxGeometry y="60" width="250" height="30" as="geometry" />
        </mxCell>
        <mxCell id="C-vyLk0tnHw3VtMMgP7b-18" value="FK1" style="shape=partialRectangle;overflow=hidden;connectable=0;fillColor=none;top=0;left=0;bottom=0;right=0;" parent="C-vyLk0tnHw3VtMMgP7b-17" vertex="1">
          <mxGeometry width="30" height="30" as="geometry">
            <mxRectangle width="30" height="30" as="alternateBounds" />
          </mxGeometry>
        </mxCell>
        <mxCell id="C-vyLk0tnHw3VtMMgP7b-19" value="order_id int NOT NULL" style="shape=partialRectangle;overflow=hidden;connectable=0;fillColor=none;top=0;left=0;bottom=0;right=0;align=left;spacingLeft=6;" parent="C-vyLk0tnHw3VtMMgP7b-17" vertex="1">
          <mxGeometry x="30" width="220" height="30" as="geometry">
            <mxRectangle width="220" height="30" as="alternateBounds" />
          </mxGeometry>
        </mxCell>
        <mxCell id="C-vyLk0tnHw3VtMMgP7b-20" value="" style="shape=partialRectangle;collapsible=0;dropTarget=0;pointerEvents=0;fillColor=none;points=[[0,0.5],[1,0.5]];portConstraint=eastwest;top=0;left=0;right=0;bottom=0;" parent="C-vyLk0tnHw3VtMMgP7b-13" vertex="1">
          <mxGeometry y="90" width="250" height="30" as="geometry" />
        </mxCell>
        <mxCell id="C-vyLk0tnHw3VtMMgP7b-21" value="" style="shape=partialRectangle;overflow=hidden;connectable=0;fillColor=none;top=0;left=0;bottom=0;right=0;" parent="C-vyLk0tnHw3VtMMgP7b-20" vertex="1">
          <mxGeometry width="30" height="30" as="geometry">
            <mxRectangle width="30" height="30" as="alternateBounds" />
          </mxGeometry>
        </mxCell>
        <mxCell id="C-vyLk0tnHw3VtMMgP7b-22" value="laptop_name varchar(15) NOT NULL&#xa;laptop_id varchar(20)NOT NULL" style="shape=partialRectangle;overflow=hidden;connectable=0;fillColor=none;top=0;left=0;bottom=0;right=0;align=left;spacingLeft=6;" parent="C-vyLk0tnHw3VtMMgP7b-20" vertex="1">
          <mxGeometry x="30" width="220" height="30" as="geometry">
            <mxRectangle width="220" height="30" as="alternateBounds" />
          </mxGeometry>
        </mxCell>
        <mxCell id="-9GWKgvjQjByhZvp3Sfi-156" value="" style="endArrow=none;html=1;rounded=0;entryX=1.004;entryY=-0.071;entryDx=0;entryDy=0;entryPerimeter=0;exitX=-0.016;exitY=-0.09;exitDx=0;exitDy=0;exitPerimeter=0;" edge="1" parent="C-vyLk0tnHw3VtMMgP7b-13" source="C-vyLk0tnHw3VtMMgP7b-20" target="C-vyLk0tnHw3VtMMgP7b-20">
          <mxGeometry relative="1" as="geometry">
            <mxPoint x="-100" y="100" as="sourcePoint" />
            <mxPoint x="60" y="100" as="targetPoint" />
          </mxGeometry>
        </mxCell>
        <mxCell id="C-vyLk0tnHw3VtMMgP7b-23" value="Customers" style="shape=table;startSize=30;container=1;collapsible=1;childLayout=tableLayout;fixedRows=1;rowLines=0;fontStyle=1;align=center;resizeLast=1;" parent="1" vertex="1">
          <mxGeometry x="88" y="40" width="250" height="160" as="geometry" />
        </mxCell>
        <mxCell id="C-vyLk0tnHw3VtMMgP7b-24" value="" style="shape=partialRectangle;collapsible=0;dropTarget=0;pointerEvents=0;fillColor=none;points=[[0,0.5],[1,0.5]];portConstraint=eastwest;top=0;left=0;right=0;bottom=1;" parent="C-vyLk0tnHw3VtMMgP7b-23" vertex="1">
          <mxGeometry y="30" width="250" height="30" as="geometry" />
        </mxCell>
        <mxCell id="C-vyLk0tnHw3VtMMgP7b-25" value="PK" style="shape=partialRectangle;overflow=hidden;connectable=0;fillColor=none;top=0;left=0;bottom=0;right=0;fontStyle=1;" parent="C-vyLk0tnHw3VtMMgP7b-24" vertex="1">
          <mxGeometry width="20" height="30" as="geometry">
            <mxRectangle width="20" height="30" as="alternateBounds" />
          </mxGeometry>
        </mxCell>
        <mxCell id="C-vyLk0tnHw3VtMMgP7b-26" value="customer_id int NOT NULL " style="shape=partialRectangle;overflow=hidden;connectable=0;fillColor=none;top=0;left=0;bottom=0;right=0;align=left;spacingLeft=6;fontStyle=5;" parent="C-vyLk0tnHw3VtMMgP7b-24" vertex="1">
          <mxGeometry x="20" width="230" height="30" as="geometry">
            <mxRectangle width="230" height="30" as="alternateBounds" />
          </mxGeometry>
        </mxCell>
        <mxCell id="-9GWKgvjQjByhZvp3Sfi-189" value="" style="shape=tableRow;horizontal=0;startSize=0;swimlaneHead=0;swimlaneBody=0;fillColor=none;collapsible=0;dropTarget=0;points=[[0,0.5],[1,0.5]];portConstraint=eastwest;top=0;left=0;right=0;bottom=0;" vertex="1" parent="C-vyLk0tnHw3VtMMgP7b-23">
          <mxGeometry y="60" width="250" height="30" as="geometry" />
        </mxCell>
        <mxCell id="-9GWKgvjQjByhZvp3Sfi-190" value="FK" style="shape=partialRectangle;connectable=0;fillColor=none;top=0;left=0;bottom=0;right=0;fontStyle=0;overflow=hidden;" vertex="1" parent="-9GWKgvjQjByhZvp3Sfi-189">
          <mxGeometry width="20" height="30" as="geometry">
            <mxRectangle width="20" height="30" as="alternateBounds" />
          </mxGeometry>
        </mxCell>
        <mxCell id="-9GWKgvjQjByhZvp3Sfi-191" value="order_id int NOT NULL" style="shape=partialRectangle;connectable=0;fillColor=none;top=0;left=0;bottom=0;right=0;align=left;spacingLeft=6;fontStyle=0;overflow=hidden;" vertex="1" parent="-9GWKgvjQjByhZvp3Sfi-189">
          <mxGeometry x="20" width="230" height="30" as="geometry">
            <mxRectangle width="230" height="30" as="alternateBounds" />
          </mxGeometry>
        </mxCell>
        <mxCell id="C-vyLk0tnHw3VtMMgP7b-27" value="" style="shape=partialRectangle;collapsible=0;dropTarget=0;pointerEvents=0;fillColor=none;points=[[0,0.5],[1,0.5]];portConstraint=eastwest;top=0;left=0;right=0;bottom=0;" parent="C-vyLk0tnHw3VtMMgP7b-23" vertex="1">
          <mxGeometry y="90" width="250" height="70" as="geometry" />
        </mxCell>
        <mxCell id="C-vyLk0tnHw3VtMMgP7b-28" value="" style="shape=partialRectangle;overflow=hidden;connectable=0;fillColor=none;top=0;left=0;bottom=0;right=0;" parent="C-vyLk0tnHw3VtMMgP7b-27" vertex="1">
          <mxGeometry width="20" height="70" as="geometry">
            <mxRectangle width="20" height="70" as="alternateBounds" />
          </mxGeometry>
        </mxCell>
        <mxCell id="C-vyLk0tnHw3VtMMgP7b-29" value="&#xa;customer_name char(20) NOT NULL&#xa;customer_id varchar(20) NOT NULL&#xa;customer_phone(10)" style="shape=partialRectangle;overflow=hidden;connectable=0;fillColor=none;top=0;left=0;bottom=0;right=0;align=left;spacingLeft=6;" parent="C-vyLk0tnHw3VtMMgP7b-27" vertex="1">
          <mxGeometry x="20" width="230" height="70" as="geometry">
            <mxRectangle width="230" height="70" as="alternateBounds" />
          </mxGeometry>
        </mxCell>
        <mxCell id="-9GWKgvjQjByhZvp3Sfi-9" style="edgeStyle=orthogonalEdgeStyle;rounded=0;orthogonalLoop=1;jettySize=auto;html=1;entryX=0;entryY=0.5;entryDx=0;entryDy=0;" edge="1" parent="1" source="-9GWKgvjQjByhZvp3Sfi-2" target="-9GWKgvjQjByhZvp3Sfi-6">
          <mxGeometry relative="1" as="geometry" />
        </mxCell>
        <mxCell id="-9GWKgvjQjByhZvp3Sfi-24" style="edgeStyle=orthogonalEdgeStyle;rounded=0;orthogonalLoop=1;jettySize=auto;html=1;exitX=0.5;exitY=0;exitDx=0;exitDy=0;entryX=0.5;entryY=1;entryDx=0;entryDy=0;" edge="1" parent="1" source="-9GWKgvjQjByhZvp3Sfi-2" target="-9GWKgvjQjByhZvp3Sfi-22">
          <mxGeometry relative="1" as="geometry" />
        </mxCell>
        <mxCell id="-9GWKgvjQjByhZvp3Sfi-143" style="edgeStyle=orthogonalEdgeStyle;rounded=0;orthogonalLoop=1;jettySize=auto;html=1;" edge="1" parent="1" source="-9GWKgvjQjByhZvp3Sfi-2" target="-9GWKgvjQjByhZvp3Sfi-7">
          <mxGeometry relative="1" as="geometry" />
        </mxCell>
        <mxCell id="-9GWKgvjQjByhZvp3Sfi-149" style="edgeStyle=orthogonalEdgeStyle;rounded=0;orthogonalLoop=1;jettySize=auto;html=1;entryX=1;entryY=0.5;entryDx=0;entryDy=0;" edge="1" parent="1" source="-9GWKgvjQjByhZvp3Sfi-2" target="-9GWKgvjQjByhZvp3Sfi-5">
          <mxGeometry relative="1" as="geometry" />
        </mxCell>
        <mxCell id="-9GWKgvjQjByhZvp3Sfi-2" value="company" style="rhombus;whiteSpace=wrap;html=1;" vertex="1" parent="1">
          <mxGeometry x="290.5" y="815" width="215" height="130" as="geometry" />
        </mxCell>
        <mxCell id="-9GWKgvjQjByhZvp3Sfi-137" style="edgeStyle=orthogonalEdgeStyle;rounded=0;orthogonalLoop=1;jettySize=auto;html=1;entryX=0.5;entryY=0;entryDx=0;entryDy=0;" edge="1" parent="1" source="-9GWKgvjQjByhZvp3Sfi-5" target="-9GWKgvjQjByhZvp3Sfi-136">
          <mxGeometry relative="1" as="geometry" />
        </mxCell>
        <mxCell id="-9GWKgvjQjByhZvp3Sfi-139" style="edgeStyle=orthogonalEdgeStyle;rounded=0;orthogonalLoop=1;jettySize=auto;html=1;entryX=0.5;entryY=1;entryDx=0;entryDy=0;" edge="1" parent="1" source="-9GWKgvjQjByhZvp3Sfi-5" target="-9GWKgvjQjByhZvp3Sfi-138">
          <mxGeometry relative="1" as="geometry" />
        </mxCell>
        <mxCell id="-9GWKgvjQjByhZvp3Sfi-5" value="orders" style="rounded=0;whiteSpace=wrap;html=1;" vertex="1" parent="1">
          <mxGeometry x="65" y="850" width="120" height="60" as="geometry" />
        </mxCell>
        <mxCell id="-9GWKgvjQjByhZvp3Sfi-122" style="edgeStyle=orthogonalEdgeStyle;rounded=0;orthogonalLoop=1;jettySize=auto;html=1;entryX=0.5;entryY=0;entryDx=0;entryDy=0;" edge="1" parent="1" source="-9GWKgvjQjByhZvp3Sfi-6" target="-9GWKgvjQjByhZvp3Sfi-121">
          <mxGeometry relative="1" as="geometry" />
        </mxCell>
        <mxCell id="-9GWKgvjQjByhZvp3Sfi-134" style="edgeStyle=orthogonalEdgeStyle;rounded=0;orthogonalLoop=1;jettySize=auto;html=1;entryX=0.5;entryY=1;entryDx=0;entryDy=0;" edge="1" parent="1" source="-9GWKgvjQjByhZvp3Sfi-6" target="-9GWKgvjQjByhZvp3Sfi-133">
          <mxGeometry relative="1" as="geometry" />
        </mxCell>
        <mxCell id="-9GWKgvjQjByhZvp3Sfi-159" style="edgeStyle=orthogonalEdgeStyle;rounded=0;orthogonalLoop=1;jettySize=auto;html=1;entryX=0;entryY=0.5;entryDx=0;entryDy=0;" edge="1" parent="1" source="-9GWKgvjQjByhZvp3Sfi-6" target="-9GWKgvjQjByhZvp3Sfi-158">
          <mxGeometry relative="1" as="geometry" />
        </mxCell>
        <mxCell id="-9GWKgvjQjByhZvp3Sfi-6" value="customers" style="rounded=0;whiteSpace=wrap;html=1;" vertex="1" parent="1">
          <mxGeometry x="610" y="850" width="120" height="60" as="geometry" />
        </mxCell>
        <mxCell id="-9GWKgvjQjByhZvp3Sfi-141" style="edgeStyle=orthogonalEdgeStyle;rounded=0;orthogonalLoop=1;jettySize=auto;html=1;exitX=0;exitY=0.5;exitDx=0;exitDy=0;entryX=1;entryY=0.5;entryDx=0;entryDy=0;" edge="1" parent="1" source="-9GWKgvjQjByhZvp3Sfi-7" target="-9GWKgvjQjByhZvp3Sfi-140">
          <mxGeometry relative="1" as="geometry" />
        </mxCell>
        <mxCell id="-9GWKgvjQjByhZvp3Sfi-153" style="edgeStyle=orthogonalEdgeStyle;rounded=0;orthogonalLoop=1;jettySize=auto;html=1;entryX=0;entryY=0.5;entryDx=0;entryDy=0;" edge="1" parent="1" source="-9GWKgvjQjByhZvp3Sfi-7" target="-9GWKgvjQjByhZvp3Sfi-152">
          <mxGeometry relative="1" as="geometry" />
        </mxCell>
        <mxCell id="-9GWKgvjQjByhZvp3Sfi-7" value="HM_laptop" style="rounded=0;whiteSpace=wrap;html=1;" vertex="1" parent="1">
          <mxGeometry x="338" y="1045" width="120" height="60" as="geometry" />
        </mxCell>
        <mxCell id="-9GWKgvjQjByhZvp3Sfi-92" style="edgeStyle=orthogonalEdgeStyle;rounded=0;orthogonalLoop=1;jettySize=auto;html=1;entryX=0.5;entryY=1;entryDx=0;entryDy=0;" edge="1" parent="1" source="-9GWKgvjQjByhZvp3Sfi-22" target="-9GWKgvjQjByhZvp3Sfi-43">
          <mxGeometry relative="1" as="geometry" />
        </mxCell>
        <mxCell id="-9GWKgvjQjByhZvp3Sfi-151" style="edgeStyle=orthogonalEdgeStyle;rounded=0;orthogonalLoop=1;jettySize=auto;html=1;entryX=1;entryY=0.5;entryDx=0;entryDy=0;" edge="1" parent="1" source="-9GWKgvjQjByhZvp3Sfi-22" target="-9GWKgvjQjByhZvp3Sfi-150">
          <mxGeometry relative="1" as="geometry" />
        </mxCell>
        <mxCell id="-9GWKgvjQjByhZvp3Sfi-22" value="staff" style="rounded=0;whiteSpace=wrap;html=1;" vertex="1" parent="1">
          <mxGeometry x="338" y="705" width="120" height="60" as="geometry" />
        </mxCell>
        <mxCell id="-9GWKgvjQjByhZvp3Sfi-25" value="n" style="text;html=1;strokeColor=none;fillColor=none;align=center;verticalAlign=middle;whiteSpace=wrap;rounded=0;" vertex="1" parent="1">
          <mxGeometry x="458" y="735" width="60" height="30" as="geometry" />
        </mxCell>
        <mxCell id="-9GWKgvjQjByhZvp3Sfi-27" value="n" style="text;html=1;strokeColor=none;fillColor=none;align=center;verticalAlign=middle;whiteSpace=wrap;rounded=0;" vertex="1" parent="1">
          <mxGeometry x="640" y="910" width="60" height="30" as="geometry" />
        </mxCell>
        <mxCell id="-9GWKgvjQjByhZvp3Sfi-43" value="staff_id" style="ellipse;whiteSpace=wrap;html=1;" vertex="1" parent="1">
          <mxGeometry x="347.5" y="615" width="100" height="50" as="geometry" />
        </mxCell>
        <mxCell id="-9GWKgvjQjByhZvp3Sfi-57" value="" style="edgeStyle=orthogonalEdgeStyle;rounded=0;orthogonalLoop=1;jettySize=auto;html=1;exitX=1;exitY=0.5;exitDx=0;exitDy=0;endArrow=none;" edge="1" parent="1" source="-9GWKgvjQjByhZvp3Sfi-22">
          <mxGeometry relative="1" as="geometry">
            <mxPoint x="458.0000000000002" y="735" as="sourcePoint" />
            <mxPoint x="550" y="735" as="targetPoint" />
          </mxGeometry>
        </mxCell>
        <mxCell id="-9GWKgvjQjByhZvp3Sfi-145" style="edgeStyle=orthogonalEdgeStyle;rounded=0;orthogonalLoop=1;jettySize=auto;html=1;entryX=0.5;entryY=1;entryDx=0;entryDy=0;" edge="1" parent="1" source="-9GWKgvjQjByhZvp3Sfi-96" target="-9GWKgvjQjByhZvp3Sfi-144">
          <mxGeometry relative="1" as="geometry" />
        </mxCell>
        <mxCell id="-9GWKgvjQjByhZvp3Sfi-148" style="edgeStyle=orthogonalEdgeStyle;rounded=0;orthogonalLoop=1;jettySize=auto;html=1;" edge="1" parent="1" source="-9GWKgvjQjByhZvp3Sfi-96" target="-9GWKgvjQjByhZvp3Sfi-147">
          <mxGeometry relative="1" as="geometry" />
        </mxCell>
        <mxCell id="-9GWKgvjQjByhZvp3Sfi-214" style="edgeStyle=orthogonalEdgeStyle;rounded=0;orthogonalLoop=1;jettySize=auto;html=1;exitX=0.5;exitY=1;exitDx=0;exitDy=0;entryX=0.5;entryY=0;entryDx=0;entryDy=0;" edge="1" parent="1" source="-9GWKgvjQjByhZvp3Sfi-96" target="-9GWKgvjQjByhZvp3Sfi-213">
          <mxGeometry relative="1" as="geometry" />
        </mxCell>
        <mxCell id="-9GWKgvjQjByhZvp3Sfi-96" value="team" style="shape=ext;margin=3;double=1;whiteSpace=wrap;html=1;align=center;" vertex="1" parent="1">
          <mxGeometry x="750" y="710" width="110" height="50" as="geometry" />
        </mxCell>
        <mxCell id="-9GWKgvjQjByhZvp3Sfi-109" value="" style="endArrow=none;html=1;rounded=0;entryX=0;entryY=0.5;entryDx=0;entryDy=0;exitX=0;exitY=0;exitDx=0;exitDy=0;" edge="1" parent="1" source="-9GWKgvjQjByhZvp3Sfi-25" target="-9GWKgvjQjByhZvp3Sfi-96">
          <mxGeometry relative="1" as="geometry">
            <mxPoint x="670" y="735" as="sourcePoint" />
            <mxPoint x="800" y="773.89" as="targetPoint" />
          </mxGeometry>
        </mxCell>
        <mxCell id="-9GWKgvjQjByhZvp3Sfi-121" value="customer_id" style="ellipse;whiteSpace=wrap;html=1;align=center;" vertex="1" parent="1">
          <mxGeometry x="750" y="915" width="100" height="40" as="geometry" />
        </mxCell>
        <mxCell id="-9GWKgvjQjByhZvp3Sfi-123" style="edgeStyle=orthogonalEdgeStyle;rounded=0;orthogonalLoop=1;jettySize=auto;html=1;exitX=0.5;exitY=1;exitDx=0;exitDy=0;" edge="1" parent="1" source="-9GWKgvjQjByhZvp3Sfi-121" target="-9GWKgvjQjByhZvp3Sfi-121">
          <mxGeometry relative="1" as="geometry" />
        </mxCell>
        <mxCell id="-9GWKgvjQjByhZvp3Sfi-133" value="customer_name" style="ellipse;whiteSpace=wrap;html=1;align=center;" vertex="1" parent="1">
          <mxGeometry x="770" y="1015" width="100" height="40" as="geometry" />
        </mxCell>
        <mxCell id="-9GWKgvjQjByhZvp3Sfi-136" value="order_id" style="ellipse;whiteSpace=wrap;html=1;align=center;" vertex="1" parent="1">
          <mxGeometry x="75" y="975" width="100" height="40" as="geometry" />
        </mxCell>
        <mxCell id="-9GWKgvjQjByhZvp3Sfi-229" style="edgeStyle=orthogonalEdgeStyle;rounded=0;orthogonalLoop=1;jettySize=auto;html=1;exitX=0;exitY=0;exitDx=0;exitDy=0;entryX=1;entryY=0.5;entryDx=0;entryDy=0;" edge="1" parent="1" source="-9GWKgvjQjByhZvp3Sfi-138" target="-9GWKgvjQjByhZvp3Sfi-227">
          <mxGeometry relative="1" as="geometry" />
        </mxCell>
        <mxCell id="-9GWKgvjQjByhZvp3Sfi-231" style="edgeStyle=orthogonalEdgeStyle;rounded=0;orthogonalLoop=1;jettySize=auto;html=1;exitX=0.5;exitY=0;exitDx=0;exitDy=0;entryX=0.5;entryY=1;entryDx=0;entryDy=0;" edge="1" parent="1" source="-9GWKgvjQjByhZvp3Sfi-138" target="-9GWKgvjQjByhZvp3Sfi-230">
          <mxGeometry relative="1" as="geometry" />
        </mxCell>
        <mxCell id="-9GWKgvjQjByhZvp3Sfi-233" style="edgeStyle=orthogonalEdgeStyle;rounded=0;orthogonalLoop=1;jettySize=auto;html=1;exitX=0;exitY=0.5;exitDx=0;exitDy=0;" edge="1" parent="1" source="-9GWKgvjQjByhZvp3Sfi-138" target="-9GWKgvjQjByhZvp3Sfi-232">
          <mxGeometry relative="1" as="geometry" />
        </mxCell>
        <mxCell id="-9GWKgvjQjByhZvp3Sfi-138" value="order_name" style="ellipse;whiteSpace=wrap;html=1;align=center;" vertex="1" parent="1">
          <mxGeometry x="75" y="785" width="100" height="40" as="geometry" />
        </mxCell>
        <mxCell id="-9GWKgvjQjByhZvp3Sfi-203" style="edgeStyle=orthogonalEdgeStyle;rounded=0;orthogonalLoop=1;jettySize=auto;html=1;exitX=0;exitY=1;exitDx=0;exitDy=0;entryX=0.5;entryY=0;entryDx=0;entryDy=0;" edge="1" parent="1" source="-9GWKgvjQjByhZvp3Sfi-140" target="-9GWKgvjQjByhZvp3Sfi-200">
          <mxGeometry relative="1" as="geometry" />
        </mxCell>
        <mxCell id="-9GWKgvjQjByhZvp3Sfi-204" style="edgeStyle=orthogonalEdgeStyle;rounded=0;orthogonalLoop=1;jettySize=auto;html=1;exitX=0.5;exitY=1;exitDx=0;exitDy=0;entryX=0.5;entryY=0;entryDx=0;entryDy=0;" edge="1" parent="1" source="-9GWKgvjQjByhZvp3Sfi-140" target="-9GWKgvjQjByhZvp3Sfi-201">
          <mxGeometry relative="1" as="geometry" />
        </mxCell>
        <mxCell id="-9GWKgvjQjByhZvp3Sfi-205" style="edgeStyle=orthogonalEdgeStyle;rounded=0;orthogonalLoop=1;jettySize=auto;html=1;exitX=1;exitY=1;exitDx=0;exitDy=0;" edge="1" parent="1" source="-9GWKgvjQjByhZvp3Sfi-140">
          <mxGeometry relative="1" as="geometry">
            <mxPoint x="320" y="1134.9999999999998" as="targetPoint" />
          </mxGeometry>
        </mxCell>
        <mxCell id="-9GWKgvjQjByhZvp3Sfi-140" value="laptop_name" style="ellipse;whiteSpace=wrap;html=1;align=center;" vertex="1" parent="1">
          <mxGeometry x="170" y="1055" width="100" height="40" as="geometry" />
        </mxCell>
        <mxCell id="-9GWKgvjQjByhZvp3Sfi-209" style="edgeStyle=orthogonalEdgeStyle;rounded=0;orthogonalLoop=1;jettySize=auto;html=1;exitX=0;exitY=0;exitDx=0;exitDy=0;entryX=0.5;entryY=1;entryDx=0;entryDy=0;" edge="1" parent="1" source="-9GWKgvjQjByhZvp3Sfi-144">
          <mxGeometry relative="1" as="geometry">
            <mxPoint x="695" y="600" as="targetPoint" />
          </mxGeometry>
        </mxCell>
        <mxCell id="-9GWKgvjQjByhZvp3Sfi-211" style="edgeStyle=orthogonalEdgeStyle;rounded=0;orthogonalLoop=1;jettySize=auto;html=1;exitX=1;exitY=0;exitDx=0;exitDy=0;entryX=0.5;entryY=1;entryDx=0;entryDy=0;" edge="1" parent="1" source="-9GWKgvjQjByhZvp3Sfi-144">
          <mxGeometry relative="1" as="geometry">
            <mxPoint x="930" y="600" as="targetPoint" />
          </mxGeometry>
        </mxCell>
        <mxCell id="-9GWKgvjQjByhZvp3Sfi-212" style="edgeStyle=orthogonalEdgeStyle;rounded=0;orthogonalLoop=1;jettySize=auto;html=1;exitX=0.5;exitY=0;exitDx=0;exitDy=0;entryX=0.5;entryY=1;entryDx=0;entryDy=0;" edge="1" parent="1" source="-9GWKgvjQjByhZvp3Sfi-144">
          <mxGeometry relative="1" as="geometry">
            <mxPoint x="805" y="600" as="targetPoint" />
          </mxGeometry>
        </mxCell>
        <mxCell id="-9GWKgvjQjByhZvp3Sfi-144" value="team_name" style="ellipse;whiteSpace=wrap;html=1;align=center;" vertex="1" parent="1">
          <mxGeometry x="755" y="635" width="100" height="40" as="geometry" />
        </mxCell>
        <mxCell id="-9GWKgvjQjByhZvp3Sfi-146" value="1" style="text;html=1;strokeColor=none;fillColor=none;align=center;verticalAlign=middle;whiteSpace=wrap;rounded=0;" vertex="1" parent="1">
          <mxGeometry x="690" y="735" width="60" height="30" as="geometry" />
        </mxCell>
        <mxCell id="-9GWKgvjQjByhZvp3Sfi-147" value="team_id" style="ellipse;whiteSpace=wrap;html=1;align=center;" vertex="1" parent="1">
          <mxGeometry x="880" y="715" width="100" height="40" as="geometry" />
        </mxCell>
        <mxCell id="-9GWKgvjQjByhZvp3Sfi-150" value="staff_name" style="ellipse;whiteSpace=wrap;html=1;align=center;" vertex="1" parent="1">
          <mxGeometry x="190.5" y="715" width="100" height="40" as="geometry" />
        </mxCell>
        <mxCell id="-9GWKgvjQjByhZvp3Sfi-152" value="laptop_id" style="ellipse;whiteSpace=wrap;html=1;align=center;" vertex="1" parent="1">
          <mxGeometry x="518" y="1055" width="100" height="40" as="geometry" />
        </mxCell>
        <mxCell id="-9GWKgvjQjByhZvp3Sfi-158" value="customer_phone" style="ellipse;whiteSpace=wrap;html=1;align=center;" vertex="1" parent="1">
          <mxGeometry x="840" y="860" width="100" height="40" as="geometry" />
        </mxCell>
        <mxCell id="-9GWKgvjQjByhZvp3Sfi-160" value="staff" style="shape=table;startSize=30;container=1;collapsible=1;childLayout=tableLayout;fixedRows=1;rowLines=0;fontStyle=1;align=center;resizeLast=1;" vertex="1" parent="1">
          <mxGeometry x="518" y="360" width="240" height="150" as="geometry" />
        </mxCell>
        <mxCell id="-9GWKgvjQjByhZvp3Sfi-161" value="" style="shape=tableRow;horizontal=0;startSize=0;swimlaneHead=0;swimlaneBody=0;fillColor=none;collapsible=0;dropTarget=0;points=[[0,0.5],[1,0.5]];portConstraint=eastwest;top=0;left=0;right=0;bottom=1;" vertex="1" parent="-9GWKgvjQjByhZvp3Sfi-160">
          <mxGeometry y="30" width="240" height="30" as="geometry" />
        </mxCell>
        <mxCell id="-9GWKgvjQjByhZvp3Sfi-162" value="PK" style="shape=partialRectangle;connectable=0;fillColor=none;top=0;left=0;bottom=0;right=0;fontStyle=1;overflow=hidden;" vertex="1" parent="-9GWKgvjQjByhZvp3Sfi-161">
          <mxGeometry width="30" height="30" as="geometry">
            <mxRectangle width="30" height="30" as="alternateBounds" />
          </mxGeometry>
        </mxCell>
        <mxCell id="-9GWKgvjQjByhZvp3Sfi-163" value="staff_id int NOT NULL" style="shape=partialRectangle;connectable=0;fillColor=none;top=0;left=0;bottom=0;right=0;align=left;spacingLeft=6;fontStyle=5;overflow=hidden;" vertex="1" parent="-9GWKgvjQjByhZvp3Sfi-161">
          <mxGeometry x="30" width="210" height="30" as="geometry">
            <mxRectangle width="210" height="30" as="alternateBounds" />
          </mxGeometry>
        </mxCell>
        <mxCell id="-9GWKgvjQjByhZvp3Sfi-164" value="" style="shape=tableRow;horizontal=0;startSize=0;swimlaneHead=0;swimlaneBody=0;fillColor=none;collapsible=0;dropTarget=0;points=[[0,0.5],[1,0.5]];portConstraint=eastwest;top=0;left=0;right=0;bottom=0;" vertex="1" parent="-9GWKgvjQjByhZvp3Sfi-160">
          <mxGeometry y="60" width="240" height="30" as="geometry" />
        </mxCell>
        <mxCell id="-9GWKgvjQjByhZvp3Sfi-165" value="FK1" style="shape=partialRectangle;connectable=0;fillColor=none;top=0;left=0;bottom=0;right=0;editable=1;overflow=hidden;" vertex="1" parent="-9GWKgvjQjByhZvp3Sfi-164">
          <mxGeometry width="30" height="30" as="geometry">
            <mxRectangle width="30" height="30" as="alternateBounds" />
          </mxGeometry>
        </mxCell>
        <mxCell id="-9GWKgvjQjByhZvp3Sfi-166" value="order_id int NOT NULL" style="shape=partialRectangle;connectable=0;fillColor=none;top=0;left=0;bottom=0;right=0;align=left;spacingLeft=6;overflow=hidden;" vertex="1" parent="-9GWKgvjQjByhZvp3Sfi-164">
          <mxGeometry x="30" width="210" height="30" as="geometry">
            <mxRectangle width="210" height="30" as="alternateBounds" />
          </mxGeometry>
        </mxCell>
        <mxCell id="-9GWKgvjQjByhZvp3Sfi-167" value="" style="shape=tableRow;horizontal=0;startSize=0;swimlaneHead=0;swimlaneBody=0;fillColor=none;collapsible=0;dropTarget=0;points=[[0,0.5],[1,0.5]];portConstraint=eastwest;top=0;left=0;right=0;bottom=0;" vertex="1" parent="-9GWKgvjQjByhZvp3Sfi-160">
          <mxGeometry y="90" width="240" height="30" as="geometry" />
        </mxCell>
        <mxCell id="-9GWKgvjQjByhZvp3Sfi-168" value="" style="shape=partialRectangle;connectable=0;fillColor=none;top=0;left=0;bottom=0;right=0;editable=1;overflow=hidden;" vertex="1" parent="-9GWKgvjQjByhZvp3Sfi-167">
          <mxGeometry width="30" height="30" as="geometry">
            <mxRectangle width="30" height="30" as="alternateBounds" />
          </mxGeometry>
        </mxCell>
        <mxCell id="-9GWKgvjQjByhZvp3Sfi-169" value="staff_name varchar(20)NOT NULL" style="shape=partialRectangle;connectable=0;fillColor=none;top=0;left=0;bottom=0;right=0;align=left;spacingLeft=6;overflow=hidden;" vertex="1" parent="-9GWKgvjQjByhZvp3Sfi-167">
          <mxGeometry x="30" width="210" height="30" as="geometry">
            <mxRectangle width="210" height="30" as="alternateBounds" />
          </mxGeometry>
        </mxCell>
        <mxCell id="-9GWKgvjQjByhZvp3Sfi-170" value="" style="shape=tableRow;horizontal=0;startSize=0;swimlaneHead=0;swimlaneBody=0;fillColor=none;collapsible=0;dropTarget=0;points=[[0,0.5],[1,0.5]];portConstraint=eastwest;top=0;left=0;right=0;bottom=0;" vertex="1" parent="-9GWKgvjQjByhZvp3Sfi-160">
          <mxGeometry y="120" width="240" height="30" as="geometry" />
        </mxCell>
        <mxCell id="-9GWKgvjQjByhZvp3Sfi-171" value="" style="shape=partialRectangle;connectable=0;fillColor=none;top=0;left=0;bottom=0;right=0;editable=1;overflow=hidden;" vertex="1" parent="-9GWKgvjQjByhZvp3Sfi-170">
          <mxGeometry width="30" height="30" as="geometry">
            <mxRectangle width="30" height="30" as="alternateBounds" />
          </mxGeometry>
        </mxCell>
        <mxCell id="-9GWKgvjQjByhZvp3Sfi-172" value="" style="shape=partialRectangle;connectable=0;fillColor=none;top=0;left=0;bottom=0;right=0;align=left;spacingLeft=6;overflow=hidden;" vertex="1" parent="-9GWKgvjQjByhZvp3Sfi-170">
          <mxGeometry x="30" width="210" height="30" as="geometry">
            <mxRectangle width="210" height="30" as="alternateBounds" />
          </mxGeometry>
        </mxCell>
        <mxCell id="-9GWKgvjQjByhZvp3Sfi-173" value="" style="endArrow=none;html=1;rounded=0;entryX=0.998;entryY=-0.035;entryDx=0;entryDy=0;entryPerimeter=0;exitX=-0.001;exitY=0.956;exitDx=0;exitDy=0;exitPerimeter=0;" edge="1" parent="-9GWKgvjQjByhZvp3Sfi-160" source="-9GWKgvjQjByhZvp3Sfi-164" target="-9GWKgvjQjByhZvp3Sfi-167">
          <mxGeometry relative="1" as="geometry">
            <mxPoint y="90" as="sourcePoint" />
            <mxPoint x="210" y="80" as="targetPoint" />
          </mxGeometry>
        </mxCell>
        <mxCell id="-9GWKgvjQjByhZvp3Sfi-174" value="team" style="shape=table;startSize=30;container=1;collapsible=1;childLayout=tableLayout;fixedRows=1;rowLines=0;fontStyle=1;align=center;resizeLast=1;" vertex="1" parent="1">
          <mxGeometry x="200" y="360" width="240" height="125" as="geometry" />
        </mxCell>
        <mxCell id="-9GWKgvjQjByhZvp3Sfi-175" value="" style="shape=tableRow;horizontal=0;startSize=0;swimlaneHead=0;swimlaneBody=0;fillColor=none;collapsible=0;dropTarget=0;points=[[0,0.5],[1,0.5]];portConstraint=eastwest;top=0;left=0;right=0;bottom=1;" vertex="1" parent="-9GWKgvjQjByhZvp3Sfi-174">
          <mxGeometry y="30" width="240" height="30" as="geometry" />
        </mxCell>
        <mxCell id="-9GWKgvjQjByhZvp3Sfi-176" value="PK" style="shape=partialRectangle;connectable=0;fillColor=none;top=0;left=0;bottom=0;right=0;fontStyle=1;overflow=hidden;" vertex="1" parent="-9GWKgvjQjByhZvp3Sfi-175">
          <mxGeometry width="30" height="30" as="geometry">
            <mxRectangle width="30" height="30" as="alternateBounds" />
          </mxGeometry>
        </mxCell>
        <mxCell id="-9GWKgvjQjByhZvp3Sfi-177" value="team_id int NOT NULL" style="shape=partialRectangle;connectable=0;fillColor=none;top=0;left=0;bottom=0;right=0;align=left;spacingLeft=6;fontStyle=5;overflow=hidden;" vertex="1" parent="-9GWKgvjQjByhZvp3Sfi-175">
          <mxGeometry x="30" width="210" height="30" as="geometry">
            <mxRectangle width="210" height="30" as="alternateBounds" />
          </mxGeometry>
        </mxCell>
        <mxCell id="-9GWKgvjQjByhZvp3Sfi-178" value="" style="shape=tableRow;horizontal=0;startSize=0;swimlaneHead=0;swimlaneBody=0;fillColor=none;collapsible=0;dropTarget=0;points=[[0,0.5],[1,0.5]];portConstraint=eastwest;top=0;left=0;right=0;bottom=0;" vertex="1" parent="-9GWKgvjQjByhZvp3Sfi-174">
          <mxGeometry y="60" width="240" height="30" as="geometry" />
        </mxCell>
        <mxCell id="-9GWKgvjQjByhZvp3Sfi-179" value="FK1" style="shape=partialRectangle;connectable=0;fillColor=none;top=0;left=0;bottom=0;right=0;editable=1;overflow=hidden;" vertex="1" parent="-9GWKgvjQjByhZvp3Sfi-178">
          <mxGeometry width="30" height="30" as="geometry">
            <mxRectangle width="30" height="30" as="alternateBounds" />
          </mxGeometry>
        </mxCell>
        <mxCell id="-9GWKgvjQjByhZvp3Sfi-180" value="staff_id int NOT NULL" style="shape=partialRectangle;connectable=0;fillColor=none;top=0;left=0;bottom=0;right=0;align=left;spacingLeft=6;overflow=hidden;" vertex="1" parent="-9GWKgvjQjByhZvp3Sfi-178">
          <mxGeometry x="30" width="210" height="30" as="geometry">
            <mxRectangle width="210" height="30" as="alternateBounds" />
          </mxGeometry>
        </mxCell>
        <mxCell id="-9GWKgvjQjByhZvp3Sfi-181" value="" style="shape=tableRow;horizontal=0;startSize=0;swimlaneHead=0;swimlaneBody=0;fillColor=none;collapsible=0;dropTarget=0;points=[[0,0.5],[1,0.5]];portConstraint=eastwest;top=0;left=0;right=0;bottom=0;" vertex="1" parent="-9GWKgvjQjByhZvp3Sfi-174">
          <mxGeometry y="90" width="240" height="25" as="geometry" />
        </mxCell>
        <mxCell id="-9GWKgvjQjByhZvp3Sfi-182" value="" style="shape=partialRectangle;connectable=0;fillColor=none;top=0;left=0;bottom=0;right=0;editable=1;overflow=hidden;" vertex="1" parent="-9GWKgvjQjByhZvp3Sfi-181">
          <mxGeometry width="30" height="25" as="geometry">
            <mxRectangle width="30" height="25" as="alternateBounds" />
          </mxGeometry>
        </mxCell>
        <mxCell id="-9GWKgvjQjByhZvp3Sfi-183" value="team_name varchar(20) NOT NULL&#xa;team_work varchar(15) NOT NULL" style="shape=partialRectangle;connectable=0;fillColor=none;top=0;left=0;bottom=0;right=0;align=left;spacingLeft=6;overflow=hidden;" vertex="1" parent="-9GWKgvjQjByhZvp3Sfi-181">
          <mxGeometry x="30" width="210" height="25" as="geometry">
            <mxRectangle width="210" height="25" as="alternateBounds" />
          </mxGeometry>
        </mxCell>
        <mxCell id="-9GWKgvjQjByhZvp3Sfi-196" value="" style="endArrow=none;html=1;rounded=0;exitX=1;exitY=0.5;exitDx=0;exitDy=0;entryX=0;entryY=0.5;entryDx=0;entryDy=0;" edge="1" parent="1" source="-9GWKgvjQjByhZvp3Sfi-178" target="-9GWKgvjQjByhZvp3Sfi-164">
          <mxGeometry relative="1" as="geometry">
            <mxPoint x="170" y="320" as="sourcePoint" />
            <mxPoint x="230" y="320" as="targetPoint" />
          </mxGeometry>
        </mxCell>
        <mxCell id="-9GWKgvjQjByhZvp3Sfi-197" value="1" style="resizable=0;html=1;align=right;verticalAlign=bottom;" connectable="0" vertex="1" parent="-9GWKgvjQjByhZvp3Sfi-196">
          <mxGeometry x="1" relative="1" as="geometry" />
        </mxCell>
        <mxCell id="-9GWKgvjQjByhZvp3Sfi-200" value="samsung" style="ellipse;whiteSpace=wrap;html=1;align=center;" vertex="1" parent="1">
          <mxGeometry x="50" y="1115" width="100" height="40" as="geometry" />
        </mxCell>
        <mxCell id="-9GWKgvjQjByhZvp3Sfi-201" value="mac" style="ellipse;whiteSpace=wrap;html=1;align=center;" vertex="1" parent="1">
          <mxGeometry x="160" y="1115" width="100" height="40" as="geometry" />
        </mxCell>
        <mxCell id="-9GWKgvjQjByhZvp3Sfi-202" value="ryzen" style="ellipse;whiteSpace=wrap;html=1;align=center;" vertex="1" parent="1">
          <mxGeometry x="270" y="1140" width="100" height="40" as="geometry" />
        </mxCell>
        <mxCell id="-9GWKgvjQjByhZvp3Sfi-206" value="break_laptop" style="ellipse;whiteSpace=wrap;html=1;align=center;" vertex="1" parent="1">
          <mxGeometry x="650" y="560" width="100" height="40" as="geometry" />
        </mxCell>
        <mxCell id="-9GWKgvjQjByhZvp3Sfi-207" value="requesting" style="ellipse;whiteSpace=wrap;html=1;align=center;" vertex="1" parent="1">
          <mxGeometry x="755" y="560" width="100" height="40" as="geometry" />
        </mxCell>
        <mxCell id="-9GWKgvjQjByhZvp3Sfi-208" value="refund" style="ellipse;whiteSpace=wrap;html=1;align=center;" vertex="1" parent="1">
          <mxGeometry x="880" y="560" width="100" height="40" as="geometry" />
        </mxCell>
        <mxCell id="-9GWKgvjQjByhZvp3Sfi-213" value="team_work&lt;br&gt;" style="ellipse;whiteSpace=wrap;html=1;align=center;fontStyle=4;" vertex="1" parent="1">
          <mxGeometry x="755" y="795" width="100" height="40" as="geometry" />
        </mxCell>
        <mxCell id="-9GWKgvjQjByhZvp3Sfi-215" value="" style="line;strokeWidth=1;rotatable=0;dashed=0;labelPosition=right;align=left;verticalAlign=middle;spacingTop=0;spacingLeft=6;points=[];portConstraint=eastwest;" vertex="1" parent="1">
          <mxGeometry x="370" y="645" width="60" height="10" as="geometry" />
        </mxCell>
        <mxCell id="-9GWKgvjQjByhZvp3Sfi-216" value="" style="line;strokeWidth=1;rotatable=0;dashed=0;labelPosition=right;align=left;verticalAlign=middle;spacingTop=0;spacingLeft=6;points=[];portConstraint=eastwest;" vertex="1" parent="1">
          <mxGeometry x="95" y="995" width="60" height="10" as="geometry" />
        </mxCell>
        <mxCell id="-9GWKgvjQjByhZvp3Sfi-217" value="" style="endArrow=none;html=1;rounded=0;" edge="1" parent="1">
          <mxGeometry width="50" height="50" relative="1" as="geometry">
            <mxPoint x="528" y="1085" as="sourcePoint" />
            <mxPoint x="608" y="1085" as="targetPoint" />
          </mxGeometry>
        </mxCell>
        <mxCell id="-9GWKgvjQjByhZvp3Sfi-218" value="" style="endArrow=none;html=1;rounded=0;" edge="1" parent="1">
          <mxGeometry width="50" height="50" relative="1" as="geometry">
            <mxPoint x="765" y="945" as="sourcePoint" />
            <mxPoint x="835" y="945" as="targetPoint" />
          </mxGeometry>
        </mxCell>
        <mxCell id="-9GWKgvjQjByhZvp3Sfi-219" value="" style="endArrow=none;html=1;rounded=0;" edge="1" parent="1">
          <mxGeometry width="50" height="50" relative="1" as="geometry">
            <mxPoint x="970" y="745" as="sourcePoint" />
            <mxPoint x="890" y="745" as="targetPoint" />
          </mxGeometry>
        </mxCell>
        <mxCell id="-9GWKgvjQjByhZvp3Sfi-221" value="" style="curved=1;endArrow=classic;html=1;rounded=0;entryX=0.75;entryY=1;entryDx=0;entryDy=0;startArrow=none;" edge="1" parent="1" source="-9GWKgvjQjByhZvp3Sfi-224" target="-9GWKgvjQjByhZvp3Sfi-5">
          <mxGeometry width="50" height="50" relative="1" as="geometry">
            <mxPoint x="680" y="945" as="sourcePoint" />
            <mxPoint x="220" y="915" as="targetPoint" />
            <Array as="points" />
          </mxGeometry>
        </mxCell>
        <mxCell id="-9GWKgvjQjByhZvp3Sfi-223" value="n" style="text;html=1;strokeColor=none;fillColor=none;align=center;verticalAlign=middle;whiteSpace=wrap;rounded=0;" vertex="1" parent="1">
          <mxGeometry x="160" y="910" width="60" height="30" as="geometry" />
        </mxCell>
        <mxCell id="-9GWKgvjQjByhZvp3Sfi-224" value="requestion" style="shape=rhombus;double=1;perimeter=rhombusPerimeter;whiteSpace=wrap;html=1;align=center;" vertex="1" parent="1">
          <mxGeometry x="250" y="925" width="120" height="60" as="geometry" />
        </mxCell>
        <mxCell id="-9GWKgvjQjByhZvp3Sfi-225" value="" style="curved=1;endArrow=none;html=1;rounded=0;entryX=0.75;entryY=1;entryDx=0;entryDy=0;exitX=0.583;exitY=1;exitDx=0;exitDy=0;exitPerimeter=0;" edge="1" parent="1" source="-9GWKgvjQjByhZvp3Sfi-6" target="-9GWKgvjQjByhZvp3Sfi-224">
          <mxGeometry width="50" height="50" relative="1" as="geometry">
            <mxPoint x="679.96" y="910" as="sourcePoint" />
            <mxPoint x="155" y="910" as="targetPoint" />
            <Array as="points">
              <mxPoint x="690" y="975" />
              <mxPoint x="610" y="975" />
              <mxPoint x="450" y="975" />
              <mxPoint x="390" y="985" />
              <mxPoint x="320" y="985" />
              <mxPoint x="410" y="985" />
              <mxPoint x="310" y="985" />
              <mxPoint x="300" y="985" />
            </Array>
          </mxGeometry>
        </mxCell>
        <mxCell id="-9GWKgvjQjByhZvp3Sfi-227" value="breaking_laptop" style="ellipse;whiteSpace=wrap;html=1;align=center;" vertex="1" parent="1">
          <mxGeometry x="-80" y="765" width="100" height="40" as="geometry" />
        </mxCell>
        <mxCell id="-9GWKgvjQjByhZvp3Sfi-230" value="burn_laptop" style="ellipse;whiteSpace=wrap;html=1;align=center;" vertex="1" parent="1">
          <mxGeometry x="40" y="705" width="100" height="40" as="geometry" />
        </mxCell>
        <mxCell id="-9GWKgvjQjByhZvp3Sfi-232" value="water_laptop" style="ellipse;whiteSpace=wrap;html=1;align=center;" vertex="1" parent="1">
          <mxGeometry x="-80" y="820" width="100" height="40" as="geometry" />
        </mxCell>
        <mxCell id="-9GWKgvjQjByhZvp3Sfi-235" value="" style="edgeStyle=entityRelationEdgeStyle;fontSize=12;html=1;endArrow=ERzeroToMany;endFill=1;rounded=0;exitX=0;exitY=0;exitDx=0;exitDy=0;" edge="1" parent="1" source="-9GWKgvjQjByhZvp3Sfi-160">
          <mxGeometry width="100" height="100" relative="1" as="geometry">
            <mxPoint x="440" y="150" as="sourcePoint" />
            <mxPoint x="530" y="140" as="targetPoint" />
          </mxGeometry>
        </mxCell>
      </root>
    </mxGraphModel>
  </diagram>
</mxfile>
